<svg width="26" height="27" viewBox="0 0 26 27" fill="none" xmlns="http://www.w3.org/2000/svg">
<g clip-path="url(#clip0_534_16)">
<path d="M16.5208 5.10394C16.5744 5.10394 16.6268 5.11983 16.6713 5.14959C16.7158 5.17935 16.7506 5.22164 16.7711 5.27113C16.7915 5.32062 16.7969 5.37508 16.7865 5.42761C16.776 5.48015 16.7502 5.52841 16.7123 5.56628C16.6745 5.60416 16.6262 5.62996 16.5737 5.64041C16.5211 5.65086 16.4667 5.64549 16.4172 5.62499C16.3677 5.60449 16.3254 5.56978 16.2956 5.52524C16.2659 5.4807 16.25 5.42834 16.25 5.37478C16.25 5.30295 16.2785 5.23406 16.3293 5.18327C16.3801 5.13248 16.449 5.10394 16.5208 5.10394ZM21.3958 5.10394C21.4494 5.10394 21.5018 5.11983 21.5463 5.14959C21.5908 5.17935 21.6256 5.22164 21.6461 5.27113C21.6665 5.32062 21.6719 5.37508 21.6615 5.42761C21.651 5.48015 21.6252 5.52841 21.5873 5.56628C21.5495 5.60416 21.5012 5.62996 21.4487 5.64041C21.3961 5.65086 21.3417 5.64549 21.2922 5.62499C21.2427 5.60449 21.2004 5.56978 21.1706 5.52524C21.1409 5.4807 21.125 5.42834 21.125 5.37478C21.125 5.30295 21.1535 5.23406 21.2043 5.18327C21.2551 5.13248 21.324 5.10394 21.3958 5.10394ZM21.125 8.89561C21.125 9.47025 20.8967 10.0213 20.4904 10.4277C20.0841 10.834 19.533 11.0623 18.9583 11.0623C18.3837 11.0623 17.8326 10.834 17.4263 10.4277C17.0199 10.0213 16.7917 9.47025 16.7917 8.89561H21.125Z" stroke="black" stroke-width="1.08333" stroke-linecap="round" stroke-linejoin="round"/>
<path d="M18.8858 0.770604C17.7146 0.769259 16.5645 1.08126 15.5546 1.67424C14.5447 2.26723 13.7119 3.1196 13.1425 4.14296C12.573 5.16631 12.2878 6.32338 12.3162 7.49414C12.3447 8.6649 12.6859 9.80673 13.3044 10.8012L11.375 14.8539L15.4278 12.9234C16.2917 13.459 17.2681 13.7868 18.2803 13.881C19.2924 13.9752 20.3125 13.8332 21.2605 13.4663C22.2084 13.0994 23.0583 12.5175 23.7432 11.7664C24.4281 11.0153 24.9294 10.1155 25.2076 9.13783C25.4858 8.16015 25.5333 7.13125 25.3464 6.13209C25.1595 5.13293 24.7433 4.19078 24.1305 3.37975C23.5178 2.56873 22.7252 1.91096 21.8151 1.45822C20.905 1.00547 19.9022 0.770092 18.8858 0.770604V0.770604Z" stroke="black" stroke-width="1.08333" stroke-linecap="round" stroke-linejoin="round"/>
<path d="M9.32967 14.1097C8.64626 13.3746 7.98583 12.6184 7.34934 11.8423L8.11634 11.0764C8.52253 10.67 8.75071 10.119 8.75071 9.54452C8.75071 8.97 8.52253 8.419 8.11634 8.01269L5.81642 5.71494C5.41011 5.30875 4.85911 5.08057 4.28459 5.08057C3.71007 5.08057 3.15907 5.30875 2.75276 5.71494L1.49284 6.97594C0.963557 7.50521 0.633622 8.20126 0.558986 8.94604C0.48435 9.69082 0.669606 10.4385 1.08334 11.0623C4.79275 16.648 9.58094 21.4362 15.1667 25.1456C15.7911 25.5587 16.5389 25.7436 17.2838 25.669C18.0288 25.5943 18.7251 25.2648 19.2552 24.7361L20.5162 23.4762C20.9224 23.0699 21.1505 22.5189 21.1505 21.9444C21.1505 21.3698 20.9224 20.8188 20.5162 20.4125L18.2184 18.1126C18.0172 17.9113 17.7783 17.7516 17.5154 17.6427C17.2525 17.5338 16.9707 17.4777 16.686 17.4777C16.4014 17.4777 16.1196 17.5338 15.8567 17.6427C15.5938 17.7516 15.3549 17.9113 15.1537 18.1126L14.3878 18.8785C13.6117 18.2415 12.8552 17.5811 12.1193 16.8982" stroke="black" stroke-width="1.08333" stroke-linecap="round" stroke-linejoin="round"/>
</g>
<defs>
<clipPath id="clip0_534_16">
<rect width="26" height="26" fill="white" transform="translate(0 0.228943)"/>
</clipPath>
</defs>
</svg>
