<svg width="26" height="27" viewBox="0 0 26 27" fill="none" xmlns="http://www.w3.org/2000/svg">
<g clip-path="url(#clip0_534_26)">
<path d="M3.79166 20.2706V25.6873H13.5417V20.2706M0.541656 19.7289L7.95707 13.3026C8.15405 13.1319 8.40598 13.0379 8.66666 13.0379C8.92733 13.0379 9.17927 13.1319 9.37624 13.3026L16.7917 19.7289" stroke="black" stroke-width="1.08333" stroke-linecap="round" stroke-linejoin="round"/>
<path d="M17.1665 13.7706L17.7082 13.3026C17.9051 13.1319 18.1571 13.0379 18.4177 13.0379C18.6784 13.0379 18.9303 13.1319 19.1273 13.3026L25.4583 18.7897M17.3333 25.6873H22.75C22.8936 25.6873 23.0314 25.6302 23.133 25.5286C23.2346 25.427 23.2917 25.2893 23.2917 25.1456V20.2706M10.2916 25.6873V21.8956C10.2916 21.752 10.2346 21.6142 10.133 21.5126C10.0314 21.411 9.89364 21.3539 9.74998 21.3539H7.58332C7.43966 21.3539 7.30188 21.411 7.2003 21.5126C7.09872 21.6142 7.04165 21.752 7.04165 21.8956V25.6873H10.2916ZM11.9166 4.31636C11.9166 6.27611 8.3709 10.5206 8.3709 10.5206C8.3709 10.5206 4.82407 6.27611 4.82407 4.31636C4.84032 3.38656 5.22109 2.50033 5.88438 1.84854C6.54767 1.19674 7.44041 0.831512 8.37036 0.831512C9.3003 0.831512 10.193 1.19674 10.8563 1.84854C11.5196 2.50033 11.9004 3.38656 11.9166 4.31636Z" stroke="black" stroke-width="1.08333" stroke-linecap="round" stroke-linejoin="round"/>
<path d="M9.69906 4.31637C9.69906 4.57932 9.62107 4.83636 9.47496 5.05498C9.32886 5.27359 9.12119 5.44397 8.87824 5.54454C8.63529 5.64512 8.36796 5.67138 8.11009 5.62C7.85221 5.56862 7.61536 5.44192 7.4295 5.25591C7.24365 5.0699 7.11713 4.83295 7.06597 4.57503C7.0148 4.31711 7.04128 4.04981 7.14205 3.80694C7.24283 3.56407 7.41337 3.35654 7.6321 3.21061C7.85084 3.06468 8.10795 2.98691 8.37089 2.98712C8.5454 2.98712 8.7182 3.02151 8.87941 3.08833C9.04062 3.15514 9.18709 3.25307 9.31043 3.37652C9.43378 3.49996 9.53159 3.64651 9.59827 3.80777C9.66495 3.96904 9.6992 4.14186 9.69906 4.31637V4.31637Z" stroke="black" stroke-width="1.08333" stroke-linecap="round" stroke-linejoin="round"/>
</g>
<defs>
<clipPath id="clip0_534_26">
<rect width="26" height="26" fill="white" transform="translate(0 0.228943)"/>
</clipPath>
</defs>
</svg>
